<?xml version="1.0" encoding="utf-8"?>
<svg viewBox="77.5742 39.1431 116.7966 137.5583" xmlns="http://www.w3.org/2000/svg">
  <g style="" transform="matrix(0.1383190006017685, 0, 0, 0.1383190006017685, 61.28025817871095, 33.223041534423814)">
    <circle cx="540" cy="465" r="422.2" style="fill: rgb(241, 213, 170);"/>
    <g>
      <path d="M825.9,444.6c18,6.2,65.8,23.3,96.5,39.8C893.8,335.7,804,292.6,804,292.6s24.2-1.6,63.5,1.8 c-80.7-73.6-164.6-56-164.6-56S720.6,225,754,210c-113.5-14.5-144.5,4.9-144.5,4.9s11.9-16.3,35.7-32.6 c-131.3,4.2-185.6,67.5-185.6,67.5s18.6-47.8,39.7-71.3c-85.8,8.4-122.9,50.6-122.9,50.6s-0.8-13.3,7-27.7 c-47.2,24.7-36.4,78.3-36.4,78.3c-11.7-3.6-26.2-6.4-43.2-6.4c-14.1,0-28.5,2-42.7,5.9l-18.2,5l0.6,18.9 c0.4,12.6,2.2,24.1,4.7,34.6c-5.7,6.4-12.3,14.4-19.2,23.8L229,361l-1.1,2.3c-22.1,30.8-46,76-44.9,127.1c0,0,0,0,0,0 c-0.1,7.7,0.4,15.9,1.5,24.6c7.9,78.5,43.5,118.9,43.5,118.9l7.6,11.8l-4.1,21.2c-1.4,5.4-2.9,12.2-3.9,20.1l0,0l0,0 c-0.6,4.3-1,9-1.2,13.9c-0.9,24,3.9,46.7,14,66.9c0,0,0.9,2.7,5,9.1c3.7,6.2,8,12.1,12.8,17.7c3.1,3.9,6.7,8.3,10.9,13.3 c0.8,1.1,1.6,2.1,2.4,3.2c22.2,33.3,12.5,129.6,12.5,129.6s32.5-22.9,43.6-56.7c47.6,27.3,99.7,153.3,99.7,153.3 s19-56.3,14.5-95.8c23.4,53,76.1,79.9,76.1,79.9l7.4-53.8l32.8,53.8c0,0,11.2-65.3,101.5-118.7c35.8-21.2,100-34.4,117.8-65 c0.1,0,0.2,0.1,0.2,0.1l70.6,33.8L808.3,804c0-0.1-1.6-2.9-3.7-8c73.5-100.8,56.4-218.6,56.4-218.6s22.5,15.3,53,67.8 c-2.2-67.6-27.7-119.7-51.8-154.2C852.2,474.1,840,458.6,825.9,444.6z" style="fill: rgb(0, 74, 173);"/>
      <g>
        <path d="M379,484.9c0,0-12.2,17.2-28.6,22.9s-26.7,20.4-26.7,20.4s11.4-30.7,19.7-36.2 c-4.8,0.1-8.4-20.4-8.4-20.4l-1.6,10.5c-4.7-9.3-5.4-15.8-5.4-15.8s5-6.1,20.1-7.2c0,0,4.6,12.3,17.2,22.2c9.5,1.9,18-1,18-1 L379,484.9z" style="fill: rgb(255, 255, 255);"/>
        <path d="M528.2,547.8c-1.4-18.3,10.3-38.6,28-50.1c11.3-7.3,23-31.6,15.7-54.8c-4.2-13.2-14.5-26.1-34.5-35.4 c15.7-7.3,32.5,0,32.5,0s-35.2-30.7-65.5-34.7c13.7-4.2,28.3-4.2,28.3-4.2s-34.9-21.7-65.9,3.5c6-16.6,8.2-22.6,8.2-22.6 s-30.5,10.2-45.1,29.2l-13.1-37.4c-41.7,23.7-82.1,107.1-82.1,107.1s20.7-3,42.8-0.6c-9.7,1.6-10.5,1.8-10.5,1.8 s17.9,6.3,27.6,21.4c0,0-16.6,31-40.8,44.8c-12.7,7.2-21.5,16.3-26.9,23.4c-5,6.4-7.2,11.1-7.2,11.1s9.8,0.7,17.4,7.5 s54.6-17.8,62.2,19.6c14.2-11.3,22.1-13.5,25.2-7.6c1,1.8,1.5,4.3,1.7,7.6c0.1,1.6-0.4,3.1-1.3,4.4c-1.3,1.9-3.4,3.5-6.1,4.9 c-11.5,6-32.3,7.4-32.3,7.4s-21.7,21.2-21.6,31.9s23.2,43,70.2,53.7c6.8,1.6,12.9,2.7,18.4,3.4c32.8,4.5,44.6-3.4,44.6-3.4 s15.2-39.3-8.9-70.2c-2.3-3-5-5.8-8-8.6c-22.2-4.3-27.5-4.3-27.5-4.3s14.4-2.2,26.7-0.3c-0.9-3.7-1.4-7.3-1.6-10.8 c-0.8-18.9,8.6-32.9,8.9-33.4c0,0,0,0,0,0s-0.7,20.7,1.2,25.2c1.8,4.5,30,20.7,30,20.7s10.8-22.7,23.4-36.6 c12.6-13.9,30.6-42.4,30.6-42.4S538.1,535,528.2,547.8z M498.7,486.4c-17.7,7.1-22.2,23.9-22.2,23.9s-29.5,9.1-50.1,42.8 c0,0,5.3-44.8,46.1-77c-15.3-7-15.3-7-15.3-7s32.5-14.9,46.8-18.6s62.7,11.9,62.7,11.9s-4.6,19.2-47.1,32.5 c22.5-13.8,27.6-21.1,27.8-21.5C546.8,474,523.5,490.4,498.7,486.4z" style="fill: rgb(241, 213, 170);"/>
        <path d="M346.1,655.1c-1.7,3.7-2.8,6.4-4.4,7.5c-1.3,0.9-3,0.7-5.8-0.9c-2.2-1.4-5.1-3.7-9-7.3 c-4-5.3-7.1-10.9-9.5-16.6c-11.3-27.4-5.7-56.9-5.7-56.9s0,0,0,0c13.9,9.8,30.9,29.9,40.1,43.9 C361,638.7,350.3,645.9,346.1,655.1z" style="fill: rgb(241, 213, 170);"/>
        <path d="M317.5,563c-2.1-0.1-3.8,1.8-3.3,3.9c0.8,3.4,4.4,8.8,17.1,15.4c21.6,11.2,25.4,17,30.2,5.1 c4.9-11.8,18.7-17.1,18.7-17.1s-7.5-4.6-27.7,0.5C334.1,575.4,327.7,563.5,317.5,563z" style="fill: rgb(241, 213, 170);"/>
        <path d="M736.7,574.3c-66.3-84.9-151.2-94.9-151.2-94.9s29.4-13.7,66.7-5.4c-31.2-43.2-75.5-65.9-76.2-66.3 c0.6,0.1,27.7,4,61.3,27.8c-23.2-32.7-76.7-58.8-76.7-58.8s48.9,5.4,88.7,31.5c-47.2-66.7-126.4-66.8-126.4-66.8 c78.7-24.4,157.5,38.6,172,100.3c-11.2-8.3-38.5-11.6-38.5-11.6s48.5,36.9,71.3,86.2c-22-19.9-46-20.3-46-20.3 S718.4,521.7,736.7,574.3z" style="fill: rgb(223, 175, 103);"/>
        <path d="M681.8,574.3c0.8,0.9,75.9,89.3-7.3,227.3c20.8-63.6-2.7-138.5-2.7-138.5s-8.8,52.6-31,86.3 C666,645.2,613.3,572.9,612.6,572c0.6,0.4,31.1,21.9,41.4,41.1c-15.7-49.5-70.3-111.6-70.3-111.6s0,0,0,0 c1.1,0.5,35,17.8,54.6,47.4c-2.6-21.3-10.2-36.1-10.2-36.1S713,556.6,724.3,622C712.5,591.6,682.4,574.6,681.8,574.3z" style="fill: rgb(223, 175, 103);"/>
        <path d="M613.9,832.6c0,0-48.4-31-30.3-111.9c-24.1,39.8-12.6,93.8-12.6,93.8s-49.5-34.1-7.5-114.8 c42-80.7,3.2-132.9,3.2-132.9s73.3,14.2,43.7,122.1C580.7,796.8,613.9,832.6,613.9,832.6z" style="fill: rgb(223, 175, 103);"/>
        <path d="M508.6,769.8c-45.6,60.2-50.4,138-26.1,176.1c-0.9-0.7-65.3-48.8-46-135.8c3.1,17.3,10.4,40.3,10.4,40.3 s-5.1-44.7,38.3-87.1c47.4-46.4,46.9-88.9,46.9-88.9S554.2,709.6,508.6,769.8z" style="fill: rgb(223, 175, 103);"/>
        <path d="M349.2,758.9c0,0-28.2,72.7,18.9,112.8c47.1,40.1,50.1,64.7,50.1,64.7s11.5-53.7-32.8-88.8 S349.2,758.9,349.2,758.9z" style="fill: rgb(223, 175, 103);"/>
        <path d="M257.6,663.2c0,0-26.3,64.1,19.3,116.7c45.6,52.6,42.8,84.6,42.8,84.6s20.7-58.3-5.6-98.1 s-25.4-57.8-25.4-57.8s-4.9,33.7,9.1,61.8C267.2,741.7,258.4,692.8,257.6,663.2z" style="fill: rgb(223, 175, 103);"/>
        <path d="M347.2,388.6c0,0-73.8,23.7-89.2,97.7c14.9-21.9,28.5-27.3,28.5-27.3s-51.7,57.5-25.9,139.9 C265,559,276,543.7,276,543.7s-19.7,64.4,6.6,109.3c26.3,44.9,25.9,62.5,25.9,62.5s9.6-29.4-10.5-82.8s21.8-139.1,21.8-139.1 s-24,8.5-36.3,25.6C287.8,463.9,306.2,435,347.2,388.6z" style="fill: rgb(223, 175, 103);"/>
        <path d="M344.5,369.6c0,0,24.9-38.8,73.9-48.2c0,0-13.9-52.2,28.5-86.2c-32.4,11.9-52.2,34.8-57.3,73.6 c-15-13-13.8-35.6-13.8-35.6s-16.2,25.1-0.7,48.7C352.6,331.8,342.1,353.3,344.5,369.6z" style="fill: rgb(223, 175, 103);"/>
        <path d="M621.4,260.8c-48.5,15.7-88.9,65-88.9,65s12.3-34.8,26.5-46.8c-58.1,14.9-80.6,60.1-80.6,60.1 s4-49.4,24.9-71.3c-54.4,35.5-67.7,68.2-67.7,68.2s-10-33.6,7.3-72.7c0,0,0,0,0,0c0,0,0,0,0,0.1c-2.6,12.9,1.8,41.5,1.8,41.5 S484.1,233,578.3,219c-40.1,21.7-55.1,49.2-55.4,49.8c1-0.5,87.8-46.3,173.5-16.6c-55.3,1.3-98.2,37.3-98.9,37.8c0,0,0,0,0,0 C598.3,288.8,609.2,270.5,621.4,260.8z" style="fill: rgb(223, 175, 103);"/>
        <path d="M633.8,277.6c0,0,100-46,160.6,21c-22.3-13.3-62.8-15-62.8-15s88.9,29.4,112.1,85.6 c-20.3-28.8-67.2-38.7-67.2-38.7s56.4,43.8,72.8,99.5c-44.7-51.3-104.8-65-104.8-65s35.6-5.3,47.2,0.7 c-27.5-29.2-67.4-51.4-67.4-51.4s39.1-1.3,52.4,4c-34.2-22.9-97.5-28.9-97.5-28.9s24.2-12.6,40.8-14.9 C695.4,271.8,648.9,272.5,633.8,277.6z" style="fill: rgb(223, 175, 103);"/>
        <path d="M732.2,411.9c0,0,110.4,35.3,135.3,159c-31.8-56.7-55.5-64.8-55.5-64.8s39.9,64.8,26,157.8 c0,0-10.9-123.6-110.4-177.5c27.8,2.3,67.6,19.7,67.6,19.7S773.3,443.7,732.2,411.9z" style="fill: rgb(223, 175, 103);"/>
        <path d="M787.7,816.1c0,0-80.9-38.8-46.2-122c34.4-82.5,10.8-140.1,10.4-141.2c0,0,0,0,0,0s0,0,0,0 c1,0.8,55.2,45.4,28.3,124.4C753.4,756.2,786.9,814.8,787.7,816.1C787.7,816.1,787.7,816.1,787.7,816.1z" style="fill: rgb(223, 175, 103);"/>
        <path d="M611.9,880.6c-70.7,42-72.3,64.7-72.3,64.7s0,0,0,0c-0.4-0.7-21.7-36.9,40.7-76.8 c63-40.3,73.1-84.8,73.1-84.8s0,0,0,0C653.9,784.5,681.9,839,611.9,880.6z" style="fill: rgb(223, 175, 103);"/>
        <path d="M458.7,744.7c-6.2-5.6-30.2-19.6-30.2-19.6s0.8,16.5,12.2,41.3c-16.5-13-37-38.9-37-38.9 s-4.8,39.5,4.6,63.9c-26.9-15.3-39.1-62.6-39.1-62.6s-3.5,19.2,7.2,37.8c-37.2-21.3-44.6-57.5-39.1-94.2c0,0,0,0,0,0 c8.3-2.4,14.2-6.7,18.2-10.8c4.2-4.3,11.1-4.6,15.4-0.4c34.9,33.5,57.7,29.9,78.6,35.8c0.8,0.2,1.6,0.5,2.4,0.7 C475.2,705,471.7,721.2,458.7,744.7z" style="fill: rgb(241, 213, 170);"/>
        <path d="M365.4,314.4c0,0-6.2,2.5-13.1,7.1c-3.6,2.4-7.4,5.4-10.6,9c-23.7-18-51.1-13.9-51.1-13.9 s1,10.3,13.7,24.8c-6.9-2.7-12.2-4.5-12.2-4.5s10.4,22.2,37.1,35.7c-6.1,4.9-8.2,6.7-14.6,11.9c-5.7,4.7-10,8.2-10,8.2 s-35.2-31.3-37.2-90.4C326.9,286.1,365.4,314.4,365.4,314.4z" style="fill: rgb(255, 255, 255);"/>
        <path d="M711.2,419.3c0,0-5.7-7.2-12-15c-5.6-6.9-11.5-14.1-14.2-17c20.2-37.2,11.4-65.5,11.4-65.5 s-39.6,1.1-66.6,21.6c-8.1-2.8-16.1-5.5-22.8-7.7c-11.1-3.6-18.9-5.9-18.9-5.9l9.5-5.1c0,0,53.1-26.1,113.7-22.4 C738.8,348.9,711.2,419.3,711.2,419.3z" style="fill: rgb(255, 255, 255);"/>
        <path d="M275.7,307.6c6.8,39.1,28,65.5,38.9,76.9c-5.7,4.7-10,8.2-10,8.2s-35.2-31.3-37.2-90.4 c59.4-16.2,97.9,12,97.9,12s-6.2,2.5-13.1,7.1C340.3,315.9,309.9,304,275.7,307.6z" style="fill: rgb(241, 213, 170);"/>
        <path d="M711.2,419.3c0,0-5.7-7.2-12-15c6.5-26.1,14.9-69.6,5.8-91.5c-48.4-2.3-84.8,15.3-98.1,22.9 c-11.1-3.6-18.9-5.9-18.9-5.9l9.5-5.1c0,0,53.1-26.1,113.7-22.4C738.8,348.9,711.2,419.3,711.2,419.3z" style="fill: rgb(241, 213, 170);"/>
        <path d="M260.5,404.7c0,0-31.3,32.6-32.3,98.2c7.1-20.5,18.4-28.6,20-30.9c0,0-21.8,38.8-14.2,113.3 C185.1,501.8,217,438.1,217,438.1l3.8,23.6C228.9,419.5,260.5,404.7,260.5,404.7z" style="fill: rgb(223, 175, 103);"/>
      </g>
      <path d="M413.4,475.2l-8.2-2.2c0,0-12.8,29-32.3,38.9c-13.8,7-32.7,16.4-46,27.3c5.5-7.1,14.2-16.2,26.9-23.4 c24.2-13.8,40.8-44.8,40.8-44.8c-9.7-15.1-27.6-21.4-27.6-21.4s0.8-0.2,10.5-1.8c-22.1-2.4-42.8,0.6-42.8,0.6s20.7-13.8,52.3-10.9 C403.9,440.2,413.4,475.2,413.4,475.2z" style="fill: rgb(255, 255, 255);"/>
      <path d="M519.6,495.1c22.5-13.8,27.6-21.1,27.8-21.5c-0.6,0.5-23.9,16.9-48.8,12.9c-17.7,7.1-22.2,23.9-22.2,23.9 s-29.5,9.1-50.1,42.8c0,0,5.3-44.8,46.1-77c-15.3-7-15.3-7-15.3-7s32.5-14.9,46.8-18.6s62.7,11.9,62.7,11.9S562,481.8,519.6,495.1 z M528.2,547.8c-1.4-18.3,10.3-38.6,28-50.1c11.3-7.3,23-31.6,15.7-54.8c-11.3-5.8-37.7-18.4-52.6-17c8.6-5.9,9.7-6.7,9.9-6.8 c-1.5,0.4-64,5.9-99.1,62.2c8.2-2.6,17-4.1,17-4.1c-0.4,0.6-28.3,37.8-47.7,100.1c14.2-11.3,22.1-13.5,25.2-7.6l0.3-0.3 c0,0,28.6-32.8,50.2-42.5c-3.5,19.4-3.5,19.4-3.5,19.4s32.8-32.6,44.7-37.8c11.9-5.2,3,38.5,3,38.5l-21,17.5l17.9,13.9l2.6,19.6 c0,0,10.8-22.7,23.4-36.6c12.6-13.9,30.6-42.4,30.6-42.4S538.1,535,528.2,547.8z" style="fill: rgb(255, 255, 255);"/>
      <path d="M498.2,679.7c0,0-11.8,7.9-44.6,3.4c-5.5-0.8-11.6-1.9-18.4-3.4c-46.9-10.8-70-43.1-70.2-53.7 s21.6-31.9,21.6-31.9s20.8-1.5,32.3-7.4c12,2.1,29.2,3,47.1-3.6c5.7-17.8,21.1-30.3,21.8-30.9c-0.5,0.8-9.6,14.7-8.8,33.3 c0.1,3.5,0.6,7.1,1.6,10.8c-12.3-1.8-26.7,0.3-26.7,0.3s5.3,0,27.5,4.3c3.1,2.8,5.7,5.6,8,8.6 C513.4,640.4,498.2,679.7,498.2,679.7z" style="fill: rgb(241, 213, 170);"/>
      <path d="M489.7,775.5c-51.8,57.1-45.3,116.2-7.2,170.3c-0.9-0.7-65.3-48.8-46-135.8c3.1,17.3,10.4,40.3,10.4,40.3 s-5.1-44.7,38.3-87.1c47.4-46.4,46.9-88.9,46.9-88.9S541.5,718.5,489.7,775.5z" style="fill: rgb(241, 213, 170);"/>
      <path d="M588.8,674.2c-32.2,78.8-36.6,92.7-17.8,140.2c0,0-49.5-34.1-7.5-114.8c42-80.7,3.2-132.9,3.2-132.9 S621,595.4,588.8,674.2z" style="fill: rgb(241, 213, 170);"/>
      <path d="M601.3,864.4c-65.4,34-61.7,80.8-61.7,80.8s0,0,0,0c-0.4-0.7-21.7-36.9,40.7-76.8 c63-40.3,73.1-84.8,73.1-84.8s0,0,0,0C653.6,784.4,666.1,830.7,601.3,864.4z" style="fill: rgb(241, 213, 170);"/>
      <path d="M674.5,801.6c20.8-63.6-2.7-138.5-2.7-138.5s-8.8,52.6-31,86.3C666,645.2,613.3,572.9,612.6,572 c0.6,0.4,31.1,21.9,41.4,41.1c-15.7-49.5-70.3-111.6-70.3-111.6s0,0,0,0c1.4,1.1,60,47.2,83.1,123.2c2.5-22.4,0.1-38.3,0-38.9 C667.6,587.5,722.5,698.8,674.5,801.6z" style="fill: rgb(241, 213, 170);"/>
      <path d="M652.1,474c-31.2-43.2-75.5-65.9-76.2-66.3c0.6,0.1,27.7,4,61.3,27.8c-23.2-32.7-76.7-58.8-76.7-58.8 s48.9,5.4,88.7,31.5c-47.2-66.7-126.4-66.8-126.4-66.8s90.9-13.1,140.2,77.7c-22.5-7.7-33-11.9-33.3-12c0.5,0.7,24.6,31,40.6,64.4 c-23.9-21.4-25.4-22.8-25.4-22.8c0.4,0.6,22.7,35.9,28,52.9c-48.8-21.7-87.5-22.2-87.5-22.2S614.9,465.7,652.1,474z" style="fill: rgb(241, 213, 170);"/>
      <path d="M647.2,250.1c0,0-36.6,21.4-49.6,39.8c0.7-1.1,11.6-19.5,23.9-29.1c-48.5,15.7-88.9,65-88.9,65 s12.3-34.8,26.5-46.8c-58.1,14.9-80.6,60.1-80.6,60.1s4-49.4,24.9-71.3c-54.4,35.5-67.7,68.2-67.7,68.2s-10-33.6,7.3-72.7 c0,0,0,0,0,0c-0.3,1.5-6.8,30.1-4.1,52.3c25.9-37.1,78.9-65.1,79.7-65.5c-0.2,0.3-11.1,18.6-15.7,40.8c51.3-29.9,89.7-37,89.7-37 s-19.9,14.2-24.2,25.2C605,254.9,647.2,250.1,647.2,250.1z" style="fill: rgb(241, 213, 170);"/>
      <path d="M787.7,816.1c0,0-80.9-38.8-46.2-122c34.4-82.5,10.8-140.1,10.4-141.2h0c0.7,0.9,33.2,39.4,8.4,119.6 C735.2,753.5,770.3,797.4,787.7,816.1C787.7,816.1,787.7,816.1,787.7,816.1z" style="fill: rgb(241, 213, 170);"/>
      <path d="M458.7,744.7c-6.2-5.6-30.2-19.6-30.2-19.6s0.8,16.5,12.2,41.3c-16.5-13-37-38.9-37-38.9 s-4.8,39.5,4.6,63.9c-26.9-15.3-39.1-62.6-39.1-62.6s-3.5,19.2,7.2,37.8c-37.2-21.3-44.6-57.5-39.1-94.2c0,0,0,0,0,0 s1.8,42.1,19.5,64.4c0.4-16.6,4.9-38.3,4.9-38.3s15.5,32.3,27,48c-1.1-25.4,2-49.8,2-49.8s16.4,25.2,29,36.1 c-3.5-18.6-4.2-29.2-4.2-29.2s19.9,7.7,36.3,22.6c8.4-5,2.7-19.8-2.2-29.3c0.8,0.2,1.6,0.5,2.4,0.7 C475.2,705,471.7,721.2,458.7,744.7z" style="fill: rgb(255, 255, 255);"/>
      <path d="M498.2,679.7c0,0-11.8,7.9-44.6,3.4c-5.5-0.8-11.6-1.9-18.4-3.4c-46.9-10.8-70-43.1-70.2-53.7 s21.6-31.9,21.6-31.9s-6.1,29.5,5,47.1C402.7,658.8,443.5,683.8,498.2,679.7z" style="fill: rgb(255, 255, 255);"/>
      <path d="M346.1,655.1c-1.7,3.7-2.8,6.4-4.4,7.5c-1.3,0.9-3,0.7-5.8-0.9c-2.2-1.4-5.1-3.7-9-7.3 c-4-5.3-7.1-10.9-9.5-16.6c4.3,5.5,13.7,16.8,16.8,15.4c4-1.8,10.3-12.6,6.3-22.3c-4-9.6-28.4-49.4-28.8-50 c13.9,9.8,30.9,29.9,40.1,43.9C361,638.7,350.3,645.9,346.1,655.1z" style="fill: rgb(255, 255, 255);"/>
    </g>
  </g>
</svg>